<?xml version="1.0" encoding="utf-8"?>
<!-- Generator: Adobe Illustrator 24.0.0, SVG Export Plug-In . SVG Version: 6.00 Build 0)  -->
<svg version="1.1" id="Layer_1" xmlns="http://www.w3.org/2000/svg" xmlns:xlink="http://www.w3.org/1999/xlink" x="0px" y="0px"
	 viewBox="0 0 256 256" enable-background="new 0 0 256 256" xml:space="preserve">
<g>
</g>
<g>
	<path fill="#F0C020" d="M25.105,127.997c-3.961-1.309-8.051-2.453-10.348-12.345c-2.115,9.112-5.504,10.745-10.348,12.345
		c7.9,2.61,9.092,6.933,10.348,12.345C16.922,131.012,20.502,129.518,25.105,127.997z"/>
	<path d="M12.166,140.943c-1.147-4.945-1.905-8.212-8.591-10.421c-2.43-0.803-2.424-4.25,0-5.051
		c4.025-1.33,6.684-2.209,8.591-10.422c0.633-2.73,4.546-2.737,5.181,0c1.95,8.399,4.863,9.193,8.591,10.421
		c2.43,0.803,2.424,4.25,0,5.051c-3.881,1.282-6.686,2.209-8.591,10.421C16.711,143.685,12.803,143.686,12.166,140.943z
		 M10.646,128.058c1.914,1.314,3.222,2.815,4.164,4.403c1.141-2.017,2.462-3.405,3.934-4.439c-1.411-1.01-2.778-2.44-3.977-4.601
		C13.58,125.554,12.194,126.995,10.646,128.058z"/>
	<path fill="#F0C020" d="M251.591,127.997c-3.961-1.309-8.051-2.453-10.348-12.345c-2.115,9.112-5.504,10.745-10.348,12.345
		c7.9,2.61,9.092,6.933,10.348,12.345C243.408,131.012,246.988,129.518,251.591,127.997z"/>
	<path d="M238.652,140.943c-1.147-4.945-1.905-8.212-8.591-10.421c-2.43-0.803-2.424-4.25,0-5.051
		c4.025-1.33,6.684-2.209,8.591-10.422c0.633-2.73,4.546-2.737,5.181,0c1.95,8.399,4.863,9.193,8.591,10.421
		c2.43,0.803,2.424,4.25,0,5.051c-3.881,1.282-6.686,2.209-8.591,10.421C243.197,143.685,239.289,143.686,238.652,140.943z
		 M237.132,128.058c1.914,1.314,3.222,2.815,4.164,4.403c1.141-2.017,2.462-3.405,3.934-4.439c-1.411-1.01-2.778-2.44-3.977-4.601
		C240.066,125.554,238.681,126.995,237.132,128.058z"/>
	<path fill="#13BF6D" d="M232.212,154.73l-13.33-7.69c1.29-6.15,1.96-12.51,1.96-19.04c0-6.53-0.67-12.89-1.96-19.04l13.33-7.69
		c4.58-2.65,6.14-8.5,3.5-13.08l-19.38-33.57c-2.65-4.58-8.49-6.15-13.08-3.5l-13.34,7.7c-9.45-8.46-20.63-15.01-32.96-19.06V24.38
		c0-5.28-4.29-9.57-9.57-9.57h-38.77c-5.28,0-9.57,4.29-9.57,9.57v15.38c-12.33,4.05-23.51,10.6-32.96,19.06l-13.34-7.7
		c-4.59-2.65-10.43-1.08-13.08,3.5l-19.38,33.57c-2.64,4.58-1.08,10.43,3.5,13.08l13.33,7.69c-1.28,6.15-1.95,12.51-1.95,19.04
		c0,6.53,0.67,12.89,1.95,19.04l-13.33,7.69c-4.58,2.65-6.14,8.5-3.5,13.08l19.38,33.57c2.65,4.58,8.49,6.15,13.08,3.5l13.34-7.7
		c9.45,8.46,20.63,15.01,32.96,19.06v15.38c0,5.28,4.29,9.57,9.57,9.57h38.77c5.28,0,9.57-4.29,9.57-9.57v-15.38
		c12.33-4.05,23.51-10.6,32.96-19.06l13.34,7.7c4.59,2.65,10.43,1.08,13.08-3.5l19.38-33.57
		C238.352,163.23,236.792,157.38,232.212,154.73z M156.682,185.42c-12.76,6.38-26.93,8.12-40.18,5.72
		c-29.95-5.41-52.67-31.62-52.67-63.14c0-35.44,28.73-64.17,64.17-64.17s64.17,28.73,64.17,64.17
		C192.172,153.13,177.722,174.89,156.682,185.42z"/>
	<path fill="#13BF6D" d="M157.456,133.24c0,16.267-13.187,29.454-29.454,29.454c-16.267,0-29.454-13.187-29.454-29.454
		s29.454-51.49,29.454-51.49S157.456,116.973,157.456,133.24z"/>
	<path fill="#76FFBB" d="M119.142,153.335c-1.28-0.517-1.898-1.975-1.381-3.254c0.516-1.28,1.974-1.899,3.254-1.381
		c12.283,4.964,23.853-3.973,23.853-15.459c0-1.078-0.484-4.461-4.971-12.593c-0.666-1.209-0.228-2.729,0.981-3.396
		c1.208-0.668,2.729-0.228,3.397,0.981c3.763,6.821,5.592,11.73,5.592,15.008C149.867,148.25,134.719,159.632,119.142,153.335z
		 M110.037,147.464c-0.774-0.708-1.538-1.467-2.271-2.256c-0.939-1.012-0.881-2.594,0.131-3.533c1.014-0.94,2.594-0.881,3.533,0.13
		c0.642,0.691,1.309,1.354,1.982,1.971c1.019,0.932,1.089,2.514,0.156,3.532C112.636,148.326,111.055,148.396,110.037,147.464z"/>
	<path fill="#76FFBB" d="M128.001,204.635c-15.848,0-31.04-4.769-43.934-13.792c-1.131-0.792-1.406-2.351-0.614-3.482
		c0.79-1.131,2.351-1.405,3.481-0.615c12.049,8.432,26.25,12.889,41.066,12.889c39.655,0,71.636-31.972,71.636-71.635
		c0-16.56-5.688-32.743-16.398-45.673c-0.88-1.063-0.732-2.639,0.331-3.52c1.063-0.88,2.638-0.733,3.521,0.331
		c11.739,14.179,17.547,31.599,17.547,48.862C204.637,170.417,170.429,204.635,128.001,204.635z M76.024,184.362
		c-0.758-0.698-1.503-1.414-2.236-2.148c-0.977-0.976-0.977-2.559,0-3.535c0.977-0.977,2.559-0.977,3.535,0
		c0.687,0.686,1.383,1.355,2.09,2.008c1.016,0.936,1.079,2.518,0.144,3.533C78.619,185.234,77.038,185.298,76.024,184.362z"/>
	<path d="M115.35,102.79c0.771-1.14,0.47-2.69-0.67-3.47c-1.1-0.75-2.72-0.44-3.47,0.66c0,0.01,0,0.01,0,0.01
		c-0.776,1.124-0.484,2.681,0.66,3.47C113.043,104.242,114.58,103.921,115.35,102.79z"/>
	<path d="M126.09,80.14c-0.03,0.03-4.04,4.84-9.03,11.59c-0.81,1.11-0.58,2.68,0.53,3.5c1.07,0.79,2.71,0.54,3.5-0.53
		c0,0,0-0.01,0.01-0.01c1.628-2.21,3.14-4.187,4.4-5.807l-0.006,48.78l-19.472-19.472c1.152-2.258,2.482-4.633,3.979-7.081
		c0.71-1.19,0.33-2.73-0.851-3.44c-1.206-0.712-2.728-0.336-3.43,0.85c-4.46,7.47-9.59,17.02-9.67,24.72
		c0,16.89,13.025,30.577,29.441,31.844l0,2.596c0.02,12.646,10.341,22.39,22.26,22.39h0.01c15.474,0,46.91-24.21,46.91-62.07
		c0-26.302-15.498-49.494-38.32-60.32c-1.22-0.57-2.76-0.01-3.33,1.19c-0.61,1.283-0.026,2.772,1.19,3.33
		c20.818,9.863,35.46,31.466,35.46,55.8c0,35.275-29.219,57.07-41.94,57.07c-9.489,0-17.22-7.8-17.239-17.39l0-2.594
		c16.394-1.254,29.469-14.924,29.469-31.846c-0.105-14.62-20.805-41.93-29.93-52.95C129.189,79.035,127.17,78.842,126.09,80.14z
		 M125.491,160.074c-13.661-1.297-24.423-12.84-24.441-26.834c-0.038-2.466,0.929-6.027,2.717-10.242l21.726,21.735L125.491,160.074
		z M130.499,88.873c3.629,4.657,7.458,9.895,10.839,14.929l-10.841,10.841L130.499,88.873z M130.495,121.714l13.633-13.641
		c3.741,5.897,10.94,18.157,10.832,25.168c-0.029,14-10.791,25.547-24.469,26.835C130.494,137.574,130.493,145.662,130.495,121.714z
		"/>
	<path d="M28.49,182.02c-1.175,0.669-1.619,2.221-0.91,3.41c0.685,1.216,2.246,1.592,3.41,0.92c1.189-0.69,1.609-2.22,0.92-3.42
		C31.24,181.79,29.649,181.35,28.49,182.02z"/>
	<path d="M18.12,86.94c-1.061,1.84-1.62,3.92-1.62,6.03c-0.01,4.3,2.31,8.31,6.04,10.46l11.77,6.8c-2.198,11.7-2.199,23.839,0,35.54
		l-11.77,6.8c-5.761,3.32-7.759,10.728-4.42,16.49l4.46,7.71c0.66,1.15,2.25,1.59,3.41,0.92c1.166-0.665,1.622-2.207,0.909-3.42
		l-4.449-7.71c-1.989-3.438-0.734-7.74,2.59-9.66l13.319-7.7c0.94-0.54,1.421-1.61,1.2-2.67c-2.468-11.852-2.596-24.591,0-37.06
		c0.221-1.06-0.26-2.13-1.2-2.67L25.04,99.1c-2.21-1.27-3.54-3.56-3.54-6.13c0-1.25,0.319-2.44,0.95-3.53l19.38-33.57
		c1.878-3.249,6.145-4.607,9.67-2.59l13.34,7.71c0.91,0.52,2.13,0.4,2.92-0.31c9.37-8.39,20.16-14.63,32.07-18.54
		c1.02-0.34,1.71-1.29,1.71-2.38V24.38c0.01-3.89,3.189-7.06,7.08-7.07h38.77c3.891,0.01,7.061,3.18,7.07,7.07v15.38
		c0,1.09,0.689,2.04,1.72,2.38c11.9,3.91,22.69,10.15,32.07,18.54c0.78,0.71,2,0.83,2.91,0.31l13.35-7.71
		c3.463-2.001,7.762-0.694,9.66,2.59l19.38,33.57c1.99,3.444,0.724,7.757-2.58,9.66l-13.33,7.7c-0.939,0.54-1.42,1.61-1.2,2.67
		c2.486,11.91,2.581,24.694,0,37.06c-0.22,1.06,0.261,2.13,1.2,2.67l13.32,7.7c3.309,1.898,4.584,6.208,2.59,9.66l-19.38,33.57
		c-1.904,3.295-6.214,4.583-9.66,2.59l-13.35-7.71c-0.91-0.52-2.13-0.4-2.91,0.31c-9.38,8.39-20.17,14.63-32.07,18.54
		c-1.03,0.34-1.72,1.29-1.72,2.38v15.38c-0.01,3.89-3.18,7.06-7.07,7.07h-38.77c-3.891-0.01-7.07-3.18-7.08-7.07v-15.38
		c0-1.09-0.69-2.04-1.71-2.38c-11.91-3.91-22.7-10.15-32.07-18.54c-0.79-0.71-2.01-0.83-2.92-0.31l-13.35,7.71
		c-3.372,1.949-7.719,0.769-9.66-2.59l-4.92-8.54c-0.67-1.15-2.261-1.58-3.42-0.91c-1.175,0.669-1.619,2.222-0.91,3.41l4.92,8.54
		c3.304,5.719,10.724,7.76,16.49,4.42l11.8-6.81c9.1,7.85,19.45,13.83,30.76,17.79v13.59c0,6.65,5.41,12.07,12.07,12.07h38.77
		c6.65,0,12.061-5.42,12.07-12.07v-13.59c11.31-3.96,21.649-9.94,30.76-17.79l11.79,6.81c5.774,3.344,13.15,1.333,16.49-4.42
		l19.38-33.57c3.356-5.797,1.311-13.187-4.42-16.49l-11.771-6.8c2.199-11.693,2.201-23.839,0-35.54l11.771-6.8
		c5.738-3.308,7.769-10.674,4.42-16.49L218.5,53.37c-3.326-5.754-10.716-7.765-16.49-4.42l-11.79,6.81
		c-9.11-7.85-19.45-13.83-30.76-17.79V24.38c-0.01-6.65-5.42-12.07-12.07-12.07h-38.77c-6.66,0-12.07,5.42-12.07,12.07v13.59
		c-11.31,3.96-21.66,9.94-30.76,17.79L54,48.95c-5.807-3.346-13.177-1.331-16.5,4.42L18.12,86.94z"/>
	<path d="M136.5,61.87C96.841,56.718,61.33,87.684,61.33,128c0,32.362,23.219,59.908,54.729,65.6c1.278,0.253,2.652-0.602,2.9-2.02
		c0.257-1.39-0.683-2.655-2.01-2.9c-29.341-5.3-50.62-30.82-50.62-60.68c0-37.327,32.817-65.91,69.529-61.17
		c1.37,0.17,2.62-0.82,2.801-2.17C138.83,63.3,137.859,62.04,136.5,61.87z"/>
	<path d="M148.35,67.09c0.387-1.301-0.336-2.698-1.689-3.1c-1.301-0.38-2.73,0.41-3.11,1.7c-0.371,1.247,0.308,2.687,1.7,3.1
		C146.542,69.183,147.96,68.425,148.35,67.09z"/>
</g>
</svg>
