<?xml version="1.0" standalone="no"?>
<!DOCTYPE svg PUBLIC "-//W3C//DTD SVG 20010904//EN"
 "http://www.w3.org/TR/2001/REC-SVG-20010904/DTD/svg10.dtd">
<svg version="1.0" xmlns="http://www.w3.org/2000/svg"
 width="900.000000pt" height="900.000000pt" viewBox="0 0 900.000000 900.000000"
 preserveAspectRatio="xMidYMid meet">
<metadata>
Created by potrace 1.10, written by Peter Selinger 2001-2011
</metadata>
<g transform="translate(0.000000,900.000000) scale(0.100000,-0.100000)"
fill="#000000" stroke="none">
<path d="M4060 8349 c-144 -5 -274 -20 -360 -41 -25 -6 -67 -14 -95 -19 -62
-9 -130 -27 -173 -45 -18 -8 -45 -14 -60 -14 -15 0 -36 -7 -46 -15 -11 -8 -27
-15 -37 -15 -9 0 -30 -7 -45 -15 -16 -8 -36 -15 -44 -15 -8 0 -24 -7 -34 -15
-11 -8 -26 -15 -33 -15 -7 0 -43 -14 -80 -31 -38 -17 -97 -44 -133 -60 -36
-17 -72 -34 -80 -39 -8 -5 -37 -21 -65 -35 -54 -28 -68 -36 -130 -75 -22 -14
-47 -29 -55 -33 -41 -20 -328 -221 -350 -246 -3 -4 -36 -32 -75 -63 -130 -104
-371 -351 -475 -483 -30 -39 -58 -74 -62 -80 -58 -71 -208 -294 -239 -355 -13
-25 -25 -47 -28 -50 -6 -5 -24 -39 -78 -145 -14 -27 -29 -57 -34 -65 -5 -8
-12 -22 -15 -30 -3 -8 -12 -31 -21 -50 -8 -19 -22 -51 -30 -70 -8 -19 -21 -48
-29 -65 -7 -16 -16 -42 -20 -58 -3 -15 -10 -30 -15 -33 -5 -3 -9 -14 -9 -26 0
-11 -6 -32 -14 -46 -16 -32 -46 -124 -46 -142 0 -7 -6 -26 -14 -43 -12 -29
-24 -78 -45 -182 -4 -22 -12 -56 -19 -75 -11 -37 -22 -105 -50 -310 -33 -253
-18 -829 27 -1005 6 -22 11 -57 11 -78 0 -21 5 -47 11 -58 6 -11 14 -41 19
-67 21 -106 33 -159 46 -189 8 -17 14 -36 14 -43 0 -18 30 -110 46 -142 8 -14
14 -35 14 -46 0 -12 4 -23 9 -26 5 -3 12 -18 15 -33 4 -16 13 -41 20 -58 8
-16 19 -41 24 -55 6 -14 31 -69 57 -123 25 -54 50 -108 56 -120 5 -12 19 -38
31 -57 11 -19 31 -53 42 -75 35 -65 80 -140 86 -145 3 -3 17 -23 30 -45 21
-34 123 -181 147 -210 5 -5 34 -42 66 -82 142 -179 377 -412 562 -558 28 -22
55 -43 60 -48 6 -4 42 -30 80 -57 39 -27 75 -53 80 -58 53 -45 541 -312 570
-312 4 0 36 -13 72 -30 35 -16 70 -30 76 -30 7 0 24 -6 39 -14 15 -8 40 -17
57 -21 17 -4 33 -11 36 -16 4 -5 17 -9 31 -9 14 0 34 -5 45 -11 34 -18 206
-64 295 -78 28 -5 61 -14 72 -20 11 -6 38 -11 59 -11 21 0 65 -7 96 -15 32 -8
81 -15 110 -15 29 0 108 -7 177 -15 160 -19 362 -19 515 0 65 8 143 15 172 15
28 0 78 7 110 15 31 8 75 15 96 15 21 0 46 4 56 10 10 5 43 14 72 19 64 12
154 34 224 55 28 9 73 22 100 30 28 8 75 24 105 36 30 12 64 24 75 27 11 3 34
11 50 18 17 8 48 21 70 30 174 71 314 146 580 308 10 7 24 17 31 22 6 6 22 17
34 25 209 141 488 390 654 585 38 44 78 91 90 105 12 14 32 41 46 60 13 19 27
37 31 40 9 7 219 320 219 327 0 3 15 31 34 62 51 84 176 337 176 355 0 5 7 24
16 44 46 107 61 148 73 197 4 17 13 40 19 52 7 12 12 28 12 37 0 8 5 27 12 43
6 15 17 51 24 78 7 28 20 79 29 115 9 36 20 90 24 120 5 30 14 75 20 100 5 25
15 79 21 120 15 104 34 620 25 667 l-8 38 -9 -45 c-5 -25 -13 -54 -17 -65 -5
-11 -13 -42 -19 -70 -18 -88 -33 -140 -43 -149 -5 -6 -9 -22 -9 -36 0 -14 -7
-35 -15 -46 -8 -10 -15 -25 -15 -32 0 -8 -6 -28 -14 -45 -7 -18 -24 -57 -36
-87 -29 -71 -69 -161 -80 -180 -5 -8 -19 -35 -31 -60 -92 -189 -259 -414 -428
-579 -88 -85 -240 -206 -309 -246 -10 -5 -31 -20 -47 -31 -32 -22 -216 -114
-231 -114 -5 -1 -27 -9 -49 -20 -22 -11 -49 -19 -61 -20 -11 0 -25 -5 -30 -10
-6 -6 -33 -15 -60 -20 -27 -5 -69 -13 -94 -19 -86 -19 -278 -34 -352 -27 -40
4 -116 11 -168 15 -52 5 -108 14 -123 20 -16 6 -40 11 -55 11 -15 0 -40 7 -56
15 -15 8 -38 15 -50 15 -11 0 -34 7 -50 15 -15 8 -32 15 -37 15 -16 0 -160 71
-227 112 -129 78 -278 213 -361 328 -50 68 -42 58 -126 160 -121 146 -258 272
-424 393 -36 26 -72 50 -80 54 -8 4 -37 22 -65 40 -28 18 -68 41 -88 50 -21 9
-38 20 -38 25 0 4 -8 8 -17 8 -10 1 -36 12 -58 25 -22 14 -47 28 -55 31 -27
10 -214 104 -270 136 -184 103 -416 319 -445 416 -3 12 -2 22 3 22 4 0 42 -25
83 -56 110 -83 187 -133 274 -178 28 -15 57 -30 65 -36 8 -5 47 -23 85 -40 39
-17 84 -37 100 -45 17 -7 61 -24 98 -36 37 -12 70 -26 73 -30 3 -5 13 -9 23
-9 35 0 276 -109 379 -172 34 -21 64 -38 67 -38 7 0 98 -63 179 -123 106 -81
276 -255 361 -371 39 -52 73 -96 77 -96 4 0 12 17 17 38 14 48 14 377 1 422
-6 19 -15 62 -20 95 -10 70 -27 137 -46 182 -8 17 -14 36 -14 41 0 6 -7 23
-15 39 -7 15 -24 48 -35 73 -28 60 -70 131 -87 148 -7 7 -13 17 -13 22 0 16
-155 167 -221 216 -36 27 -119 75 -185 107 -65 32 -132 65 -147 73 -16 8 -36
14 -45 14 -9 0 -29 6 -44 14 -15 8 -40 17 -57 21 -17 4 -33 11 -36 16 -4 5
-18 9 -33 9 -15 0 -40 7 -56 15 -15 8 -42 15 -60 15 -17 1 -49 7 -71 15 -22 8
-56 15 -76 15 -20 0 -58 7 -85 15 -27 8 -72 15 -100 15 -28 0 -73 7 -100 15
-27 8 -64 15 -82 15 -18 0 -49 7 -69 15 -19 8 -50 15 -67 15 -17 0 -44 7 -60
15 -15 8 -34 15 -42 15 -13 0 -47 13 -124 48 -38 17 -152 82 -160 91 -3 3 -27
24 -55 46 -27 22 -61 53 -76 69 l-26 30 -7 -70 c-4 -38 -11 -100 -17 -139 -16
-103 -5 -655 15 -775 19 -119 34 -192 51 -250 35 -124 48 -167 56 -185 4 -11
18 -45 30 -75 27 -69 82 -183 91 -190 4 -3 12 -17 17 -30 44 -102 277 -372
377 -436 27 -18 35 -23 67 -49 34 -26 246 -135 264 -135 8 0 27 -6 41 -14 15
-7 52 -20 82 -29 155 -42 206 -50 379 -52 211 -4 191 -2 191 -20 0 -16 -27
-76 -39 -85 -3 -3 -19 -24 -34 -46 -16 -23 -41 -53 -56 -67 -44 -39 -134 -97
-151 -97 -9 0 -21 -5 -28 -12 -6 -6 -30 -14 -54 -19 -24 -4 -70 -12 -103 -18
-75 -14 -374 -14 -435 0 -25 5 -79 13 -120 18 -41 4 -85 13 -97 19 -12 7 -34
12 -50 12 -15 0 -41 7 -57 15 -15 8 -36 15 -45 15 -9 0 -29 7 -45 15 -15 8
-33 15 -38 15 -6 0 -26 7 -46 16 -279 125 -419 220 -612 413 -153 154 -168
172 -265 316 -54 83 -106 179 -150 280 -38 86 -45 104 -45 114 0 6 -6 25 -14
43 -22 53 -39 110 -47 158 -5 25 -13 68 -18 95 -32 160 -43 442 -21 564 43
248 50 285 61 296 5 5 9 18 9 30 0 11 7 33 15 49 8 15 15 35 15 43 0 17 15 52
82 188 53 109 56 115 107 195 154 241 394 471 646 617 70 42 287 143 304 143
6 0 25 6 43 14 61 26 133 46 161 46 16 0 38 5 50 12 23 12 81 20 288 38 92 8
153 8 230 0 184 -19 247 -28 268 -39 11 -6 35 -11 53 -11 18 0 46 -7 62 -15
15 -8 37 -15 47 -15 10 0 33 -6 51 -14 18 -8 73 -31 122 -51 79 -33 141 -63
218 -107 38 -22 209 -139 236 -162 125 -105 293 -280 340 -355 9 -14 19 -28
22 -31 12 -11 50 -70 50 -76 0 -4 7 -15 15 -24 32 -35 165 -301 165 -330 0 -5
6 -24 14 -42 8 -18 22 -60 31 -93 9 -33 22 -76 27 -95 6 -19 15 -64 19 -100 5
-36 13 -87 18 -115 6 -27 10 -117 10 -200 1 -322 70 -552 185 -612 116 -62
323 -68 451 -12 11 5 31 13 45 19 59 24 130 79 221 169 73 73 189 221 189 240
0 5 6 16 13 23 29 31 106 220 107 263 0 11 7 33 15 49 8 15 15 42 15 58 0 17
7 60 15 97 23 108 39 347 31 483 -12 204 -23 321 -35 358 -6 19 -11 54 -11 78
0 24 -5 52 -11 63 -6 11 -14 41 -19 67 -12 64 -30 131 -46 169 -8 17 -14 39
-14 50 0 10 -7 27 -15 37 -8 11 -15 30 -15 42 0 13 -4 25 -9 28 -5 3 -12 18
-16 33 -12 51 -130 291 -186 378 -10 17 -22 37 -26 45 -3 8 -9 17 -13 20 -3 3
-17 23 -30 45 -13 22 -26 42 -30 45 -3 3 -17 23 -32 45 -15 22 -39 53 -53 69
-14 16 -40 49 -58 72 -42 56 -254 266 -337 335 -81 67 -107 87 -195 149 -38
27 -74 53 -80 58 -5 4 -46 29 -90 55 -44 26 -87 52 -95 57 -19 11 -215 107
-255 124 -77 34 -95 41 -170 68 -44 16 -100 34 -125 39 -24 5 -49 14 -54 19
-6 6 -22 10 -37 10 -15 0 -40 5 -56 12 -15 6 -50 14 -78 18 -27 4 -70 12 -95
18 -142 34 -397 51 -640 41z"/>
<path d="M7805 7310 c-147 -39 -223 -81 -318 -177 -56 -57 -137 -169 -137
-189 0 -4 -6 -20 -14 -37 -44 -100 -56 -309 -24 -418 36 -123 91 -215 184
-305 44 -42 163 -124 181 -124 3 0 19 -6 36 -14 63 -28 124 -39 227 -43 105
-4 138 1 260 45 159 57 325 226 374 382 45 140 56 265 31 355 -31 112 -48 160
-77 206 -15 25 -28 49 -28 52 0 13 -98 112 -150 151 -159 119 -365 163 -545
116z"/>
</g>
</svg>
